<?xml version="1.0" encoding="UTF-8"?>
<!DOCTYPE svg PUBLIC "-//W3C//DTD SVG 1.1//EN" "http://www.w3.org/Graphics/SVG/1.1/DTD/svg11.dtd">
<!-- Creator: CorelDRAW -->
<svg xmlns="http://www.w3.org/2000/svg" xml:space="preserve" width="68.9052mm" height="27.3468mm" version="1.1" style="shape-rendering:geometricPrecision; text-rendering:geometricPrecision; image-rendering:optimizeQuality; fill-rule:evenodd; clip-rule:evenodd"
viewBox="0 0 3272.02 1298.58"
 xmlns:xlink="http://www.w3.org/1999/xlink"
 xmlns:xodm="http://www.corel.com/coreldraw/odm/2003">
 <defs>
  <style type="text/css">
   <![CDATA[
    .fil0 {fill:#000000}
    .fil1 {fill:#000000;fill-rule:nonzero}
   ]]>
  </style>
 </defs>
 <g id="Capa_x0020_1">
  <metadata id="CorelCorpID_0Corel-Layer"/>
  <path class="fil0" d="M434.61 358.69c-12,-39.53 -22.95,-79.55 -26.63,-122.96 55.78,27.33 89.81,70.14 112,121.39 11.65,-27.56 -9.92,-141.96 5.9,-131.05 54.56,37.63 77.98,88.48 80.25,154.55 87.45,14.47 152.38,51.35 207.12,112.3 145.77,156.66 200.48,385.07 162.09,593.24 -198.88,-33.29 -430.48,13.83 -530.28,207.54 -21.37,41.28 -7.95,-188.26 138.79,-342.91 225.24,-237.38 26.96,-343.34 35.81,-324.16 95.92,207.72 -113.55,353.44 -279.81,244.13 -12.28,-10.76 -34.82,-8.08 -55.2,-1.73 -41.27,8.85 -67.67,44.2 -91.83,98.05 -133.81,44.15 -200.35,-66.39 -151.28,-177.91l168.4 -176.8c2.63,-4.98 4.54,-11.96 4.56,-24.32 1.23,-37.2 -3.77,-41.45 27.82,-66.35l69.4 -70.74 -303.28 -430.5c-17.97,-25.5 -4.05,-25.24 12.47,-9.76l457.52 494.81c39.57,43.06 -51.76,-107.02 -52.89,-109.05 -4.58,-13.22 -6.81,-12.09 -1.5,-25.05 1.89,-4.63 6.26,-8.36 10.59,-12.71zm-152.6 311.6c8.8,-26.67 17.71,-62.47 41.35,-79.72 27.12,-19.04 70.78,-2.29 101.2,-19.79 4.14,-0.78 4.79,0.48 4.95,4.93 -3.9,43.98 -23.55,64.73 -67.19,70.38 -27.76,2.32 -52.29,17.64 -77.23,29.58 -3.83,1.16 -5.04,-0.44 -3.07,-5.38z"/>
  <path class="fil1" d="M1471.73 547.48l0 258c0,27.47 -6.05,52.23 -18.06,74.39 -12.1,22.07 -30.44,39.57 -54.84,52.51 -24.49,12.84 -55.31,19.36 -92.36,19.36 -52.7,0 -92.92,-13.5 -120.57,-40.41 -27.66,-26.91 -41.43,-62.57 -41.43,-106.88l0 -256.97 84.26 0 0 244.12c0,32.86 6.7,55.96 20.21,69.27 13.41,13.32 33.33,19.93 59.68,19.93 18.62,0 33.61,-3.16 45.15,-9.59 11.54,-6.33 20.11,-16.11 25.51,-29.42 5.49,-13.32 8.2,-30.17 8.2,-50.74l0 -243.56 84.26 0z"/>
  <path id="_1" class="fil1" d="M1736.06 635.56c32.58,0 58.75,8.85 78.58,26.63 19.83,17.69 29.7,46.09 29.7,85.19l0 198.88 -83.14 0 0 -178.11c0,-21.79 -4.01,-38.27 -11.92,-49.35 -7.92,-11.17 -20.3,-16.67 -37.24,-16.67 -25.42,0 -42.83,8.66 -52.04,25.88 -9.31,17.32 -13.97,42.18 -13.97,74.77l0 143.47 -83.14 0 0 -304.92 63.5 0 11.17 39.01 4.66 0c6.61,-10.61 14.71,-19.18 24.39,-25.69 9.78,-6.52 20.58,-11.36 32.49,-14.43 11.91,-3.07 24.21,-4.66 36.96,-4.66z"/>
  <path id="_2" class="fil1" d="M2013.14 641.33l0 304.92 -83.14 0 0 -304.92 83.14 0zm-41.43 -119.55c12.38,0 23,2.89 31.93,8.66 8.84,5.68 13.32,16.39 13.32,32.03 0,15.46 -4.47,26.16 -13.32,32.03 -8.94,5.96 -19.55,8.84 -31.93,8.84 -12.57,0 -23.28,-2.88 -32.03,-8.84 -8.85,-5.86 -13.22,-16.57 -13.22,-32.03 0,-15.64 4.37,-26.35 13.22,-32.03 8.75,-5.77 19.46,-8.66 32.03,-8.66z"/>
  <path id="_3" class="fil1" d="M2224.3 951.75c-30.17,0 -55.96,-5.49 -77.18,-16.57 -21.32,-10.99 -37.52,-28.03 -48.6,-51.11 -11.08,-23.09 -16.57,-52.6 -16.57,-88.64 0,-37.34 6.24,-67.69 18.9,-91.24 12.66,-23.56 30.17,-40.88 52.7,-51.95 22.44,-11.08 48.51,-16.67 78.11,-16.67 21.04,0 39.29,2.05 54.65,6.15 15.36,4.09 28.77,8.94 40.22,14.62l-24.48 64.33c-13.13,-5.21 -25.32,-9.59 -36.59,-12.94 -11.26,-3.35 -22.53,-5.03 -33.8,-5.03 -14.53,0 -26.63,3.35 -36.31,10.24 -9.59,6.8 -16.76,17.04 -21.51,30.63 -4.75,13.69 -7.08,30.72 -7.08,51.3 0,20.21 2.51,36.96 7.64,50.18 5.02,13.32 12.38,23.18 22.06,29.61 9.69,6.42 21.33,9.68 35.2,9.68 17.22,0 32.68,-2.33 46.08,-6.98 13.5,-4.66 26.54,-11.08 39.29,-19.46l0 71.13c-12.76,8.01 -26.07,13.78 -39.95,17.32 -13.97,3.63 -31.56,5.4 -52.79,5.4z"/>
  <path id="_4" class="fil1" d="M2664.78 793.19c0,25.51 -3.35,48.04 -10.24,67.69 -6.8,19.64 -16.66,36.22 -29.7,49.81 -13.03,13.5 -28.68,23.74 -46.93,30.63 -18.25,6.89 -38.82,10.43 -61.73,10.43 -21.51,0 -41.15,-3.54 -59.12,-10.43 -17.88,-6.89 -33.43,-17.13 -46.65,-30.63 -13.13,-13.59 -23.37,-30.17 -30.54,-49.81 -7.17,-19.64 -10.71,-42.18 -10.71,-67.69 0,-33.8 5.96,-62.38 17.97,-85.84 12.01,-23.46 29.05,-41.34 51.3,-53.54 22.16,-12.1 48.6,-18.25 79.33,-18.25 28.58,0 53.91,6.15 75.97,18.25 22.07,12.2 39.47,30.07 52.14,53.54 12.57,23.46 18.9,52.05 18.9,85.84zm-210.79 0c0,20.02 2.14,36.87 6.52,50.46 4.38,13.69 11.17,23.93 20.49,30.82 9.22,6.99 21.32,10.43 36.22,10.43 14.81,0 26.72,-3.44 35.94,-10.43 9.13,-6.89 15.92,-17.13 20.11,-30.82 4.28,-13.6 6.42,-30.44 6.42,-50.46 0,-20.11 -2.14,-36.96 -6.42,-50.28 -4.19,-13.41 -10.98,-23.46 -20.3,-30.16 -9.22,-6.7 -21.32,-10.06 -36.31,-10.06 -21.97,0 -37.89,7.54 -47.86,22.63 -9.87,15.08 -14.8,37.7 -14.8,67.87z"/>
  <path id="_5" class="fil1" d="M2903.78 635.56c4.19,0 9.03,0.28 14.62,0.66 5.49,0.47 10.05,1.12 13.5,1.77l-6.33 78.02c-2.7,-0.84 -6.61,-1.58 -11.54,-2.05 -5.03,-0.47 -9.31,-0.66 -12.94,-0.66 -10.8,0 -21.14,1.4 -31.28,4.1 -10.06,2.7 -19.09,7.17 -27.1,13.22 -8.01,6.14 -14.34,14.06 -18.99,24.02 -4.65,9.87 -6.98,22.07 -6.98,36.4l0 155.21 -83.14 0 0 -304.92 63.03 0 12.19 51.21 4.1 0c6.05,-10.33 13.5,-19.83 22.53,-28.49 9.03,-8.66 19.27,-15.55 30.82,-20.67 11.54,-5.21 24.02,-7.82 37.52,-7.82z"/>
  <path id="_6" class="fil1" d="M3156.94 635.56c34.36,0 62.1,13.41 83.33,40.13 21.23,26.72 31.75,65.92 31.75,117.5 0,34.64 -4.93,63.68 -14.99,87.15 -9.96,23.56 -23.83,41.34 -41.43,53.35 -17.69,12.01 -37.89,18.06 -60.8,18.06 -14.81,0 -27.38,-1.86 -37.99,-5.59 -10.52,-3.81 -19.55,-8.56 -27,-14.52 -7.45,-5.87 -13.87,-12.2 -19.36,-18.9l-4.38 0c1.49,7.27 2.61,14.71 3.35,22.35 0.65,7.64 1.03,15.08 1.03,22.35l0 122.99 -83.14 0 0 -439.09 67.59 0 11.73 39.47 3.82 0c5.49,-8.1 12.1,-15.73 19.93,-22.62 7.82,-6.89 17.22,-12.38 28.21,-16.48 11.08,-4.1 23.83,-6.15 38.36,-6.15zm-26.73 66.57c-14.52,0 -26.07,2.98 -34.63,9.03 -8.57,5.96 -14.81,14.99 -18.71,27 -3.91,12.01 -6.05,27.19 -6.42,45.53l0 9.03c0,19.64 1.86,36.22 5.58,49.9 3.72,13.6 10.06,24.02 18.9,31.1 8.75,7.08 20.95,10.61 36.41,10.61 12.66,0 23.18,-3.54 31.37,-10.61 8.1,-7.08 14.25,-17.5 18.34,-31.28 4.1,-13.69 6.14,-30.44 6.14,-50.28 0,-29.88 -4.65,-52.32 -13.88,-67.41 -9.31,-15.08 -23.65,-22.63 -43.11,-22.63z"/>
 </g>
</svg>
