<?xml version="1.0" encoding="UTF-8"?>
<!DOCTYPE svg PUBLIC "-//W3C//DTD SVG 1.1//EN" "http://www.w3.org/Graphics/SVG/1.1/DTD/svg11.dtd">
<!-- Creator: CorelDRAW -->
<svg xmlns="http://www.w3.org/2000/svg" xml:space="preserve" width="10.2557mm" height="13.49mm" version="1.1" style="shape-rendering:geometricPrecision; text-rendering:geometricPrecision; image-rendering:optimizeQuality; fill-rule:evenodd; clip-rule:evenodd"
viewBox="0 0 94.65 124.5"
 xmlns:xlink="http://www.w3.org/1999/xlink"
 xmlns:xodm="http://www.corel.com/coreldraw/odm/2003">
 <defs>
  <style type="text/css">
   <![CDATA[
    .fil0 {fill:#7F00B2}
   ]]>
  </style>
 </defs>
 <g id="Capa_x0020_1">
  <metadata id="CorelCorpID_0Corel-Layer"/>
  <path class="fil0" d="M41.67 34.39c-1.15,-3.79 -2.2,-7.63 -2.55,-11.79 5.35,2.62 8.61,6.73 10.74,11.64 1.12,-2.64 -0.95,-13.61 0.57,-12.56 5.23,3.61 7.48,8.48 7.69,14.82 8.38,1.39 14.61,4.92 19.86,10.77 13.97,15.02 19.22,36.92 15.54,56.87 -19.07,-3.19 -41.27,1.33 -50.84,19.9 -2.05,3.96 -0.76,-18.05 13.31,-32.88 21.59,-22.76 2.58,-32.92 3.43,-31.08 9.2,19.91 -10.89,33.89 -26.83,23.41 -1.18,-1.03 -3.34,-0.77 -5.29,-0.17 -3.96,0.85 -6.49,4.24 -8.8,9.4 -12.83,4.23 -19.21,-6.36 -14.5,-17.06l16.14 -16.95c0.25,-0.48 0.44,-1.15 0.44,-2.33 0.12,-3.57 -0.36,-3.97 2.67,-6.36l6.65 -6.78 -29.08 -41.27c-1.72,-2.45 -0.39,-2.42 1.2,-0.94l43.86 47.44c3.79,4.13 -4.96,-10.26 -5.07,-10.46 -0.44,-1.27 -0.65,-1.16 -0.14,-2.4 0.18,-0.44 0.6,-0.8 1.02,-1.22zm-14.63 29.87c0.84,-2.56 1.7,-5.99 3.96,-7.64 2.6,-1.83 6.79,-0.22 9.7,-1.9 0.4,-0.08 0.46,0.05 0.47,0.47 -0.37,4.22 -2.26,6.21 -6.44,6.75 -2.66,0.22 -5.01,1.69 -7.4,2.84 -0.37,0.11 -0.48,-0.04 -0.3,-0.51z"/>
 </g>
</svg>
